<mxfile host="Electron" modified="2024-05-14T07:55:24.956Z" agent="Mozilla/5.0 (Windows NT 10.0; Win64; x64) AppleWebKit/537.36 (KHTML, like Gecko) draw.io/24.2.5 Chrome/120.0.6099.109 Electron/28.1.0 Safari/537.36" etag="RMelspWe7wiJGLuZ8Njj" version="24.2.5" type="device">
  <diagram name="Сторінка-1" id="Mtmbrz7pU-gL7SWizAsZ">
    <mxGraphModel dx="1290" dy="629" grid="1" gridSize="10" guides="1" tooltips="1" connect="1" arrows="1" fold="1" page="1" pageScale="1" pageWidth="827" pageHeight="1169" math="0" shadow="0">
      <root>
        <mxCell id="0" />
        <mxCell id="1" parent="0" />
        <mxCell id="DTc2Wn41yiB-sZ89Ve1j-1" value="Викладач" style="shape=umlActor;verticalLabelPosition=bottom;verticalAlign=top;html=1;outlineConnect=0;" parent="1" vertex="1">
          <mxGeometry x="80" y="40" width="30" height="60" as="geometry" />
        </mxCell>
        <mxCell id="DTc2Wn41yiB-sZ89Ve1j-6" value="" style="ellipse;html=1;shape=startState;fillColor=#000000;strokeColor=#ff0000;" parent="1" vertex="1">
          <mxGeometry x="120" y="70" width="30" height="30" as="geometry" />
        </mxCell>
        <mxCell id="DTc2Wn41yiB-sZ89Ve1j-7" value="" style="edgeStyle=orthogonalEdgeStyle;html=1;verticalAlign=bottom;endArrow=open;endSize=8;strokeColor=#ff0000;rounded=0;" parent="1" source="DTc2Wn41yiB-sZ89Ve1j-6" edge="1">
          <mxGeometry relative="1" as="geometry">
            <mxPoint x="135" y="160" as="targetPoint" />
          </mxGeometry>
        </mxCell>
        <mxCell id="DTc2Wn41yiB-sZ89Ve1j-8" value="Вхід на платформу" style="text;whiteSpace=wrap;html=1;" parent="1" vertex="1">
          <mxGeometry x="150" y="110" width="70" height="40" as="geometry" />
        </mxCell>
        <mxCell id="DTc2Wn41yiB-sZ89Ve1j-9" value="Вибір предмету та розділу" style="rounded=1;whiteSpace=wrap;html=1;arcSize=40;fontColor=#000000;fillColor=#ffffc0;strokeColor=#ff0000;" parent="1" vertex="1">
          <mxGeometry x="75" y="160" width="120" height="40" as="geometry" />
        </mxCell>
        <mxCell id="DTc2Wn41yiB-sZ89Ve1j-10" value="" style="edgeStyle=orthogonalEdgeStyle;html=1;verticalAlign=bottom;endArrow=open;endSize=8;strokeColor=#ff0000;rounded=0;" parent="1" source="DTc2Wn41yiB-sZ89Ve1j-9" edge="1">
          <mxGeometry relative="1" as="geometry">
            <mxPoint x="135" y="260" as="targetPoint" />
            <Array as="points">
              <mxPoint x="135" y="230" />
              <mxPoint x="136" y="230" />
            </Array>
          </mxGeometry>
        </mxCell>
        <mxCell id="DTc2Wn41yiB-sZ89Ve1j-11" value="Вибір типу тесту" style="rounded=1;whiteSpace=wrap;html=1;arcSize=40;fontColor=#000000;fillColor=#ffffc0;strokeColor=#ff0000;" parent="1" vertex="1">
          <mxGeometry x="80" y="260" width="120" height="40" as="geometry" />
        </mxCell>
        <mxCell id="DTc2Wn41yiB-sZ89Ve1j-18" value="Додавання запитань" style="rounded=1;whiteSpace=wrap;html=1;arcSize=40;fontColor=#000000;fillColor=#ffffc0;strokeColor=#ff0000;" parent="1" vertex="1">
          <mxGeometry x="80" y="500" width="120" height="40" as="geometry" />
        </mxCell>
        <mxCell id="DTc2Wn41yiB-sZ89Ve1j-19" value="" style="edgeStyle=orthogonalEdgeStyle;html=1;verticalAlign=bottom;endArrow=open;endSize=8;strokeColor=#ff0000;rounded=0;" parent="1" source="DTc2Wn41yiB-sZ89Ve1j-18" target="DTc2Wn41yiB-sZ89Ve1j-20" edge="1">
          <mxGeometry relative="1" as="geometry">
            <mxPoint x="290" y="520" as="targetPoint" />
          </mxGeometry>
        </mxCell>
        <mxCell id="DTc2Wn41yiB-sZ89Ve1j-20" value="Редагування запитань" style="rounded=1;whiteSpace=wrap;html=1;arcSize=40;fontColor=#000000;fillColor=#ffffc0;strokeColor=#ff0000;" parent="1" vertex="1">
          <mxGeometry x="280" y="500" width="120" height="40" as="geometry" />
        </mxCell>
        <mxCell id="DTc2Wn41yiB-sZ89Ve1j-23" value="Видалення запитань" style="rounded=1;whiteSpace=wrap;html=1;arcSize=40;fontColor=#000000;fillColor=#ffffc0;strokeColor=#ff0000;" parent="1" vertex="1">
          <mxGeometry x="80" y="610" width="120" height="40" as="geometry" />
        </mxCell>
        <mxCell id="DTc2Wn41yiB-sZ89Ve1j-25" value="" style="edgeStyle=orthogonalEdgeStyle;html=1;verticalAlign=bottom;endArrow=open;endSize=8;strokeColor=#ff0000;rounded=0;entryX=0.5;entryY=0;entryDx=0;entryDy=0;" parent="1" target="DTc2Wn41yiB-sZ89Ve1j-23" edge="1">
          <mxGeometry relative="1" as="geometry">
            <mxPoint x="139.5" y="600" as="targetPoint" />
            <mxPoint x="139.5" y="540" as="sourcePoint" />
          </mxGeometry>
        </mxCell>
        <mxCell id="DTc2Wn41yiB-sZ89Ve1j-26" value="Налаштування параметрів тесту" style="rounded=1;whiteSpace=wrap;html=1;arcSize=40;fontColor=#000000;fillColor=#ffffc0;strokeColor=#ff0000;" parent="1" vertex="1">
          <mxGeometry x="320" y="390" width="120" height="40" as="geometry" />
        </mxCell>
        <mxCell id="DTc2Wn41yiB-sZ89Ve1j-29" value="Збереження тесту" style="rounded=1;whiteSpace=wrap;html=1;arcSize=40;fontColor=#000000;fillColor=#ffffc0;strokeColor=#ff0000;" parent="1" vertex="1">
          <mxGeometry x="530" y="390" width="120" height="40" as="geometry" />
        </mxCell>
        <mxCell id="DTc2Wn41yiB-sZ89Ve1j-32" value="" style="edgeStyle=orthogonalEdgeStyle;html=1;verticalAlign=bottom;endArrow=open;endSize=8;strokeColor=#ff0000;rounded=0;" parent="1" edge="1">
          <mxGeometry relative="1" as="geometry">
            <mxPoint x="530" y="409.5" as="targetPoint" />
            <mxPoint x="440" y="409.5" as="sourcePoint" />
          </mxGeometry>
        </mxCell>
        <mxCell id="DTc2Wn41yiB-sZ89Ve1j-34" value="" style="ellipse;html=1;shape=endState;fillColor=#000000;strokeColor=#ff0000;" parent="1" vertex="1">
          <mxGeometry x="575" y="280" width="30" height="30" as="geometry" />
        </mxCell>
        <mxCell id="DTc2Wn41yiB-sZ89Ve1j-35" value="" style="edgeStyle=orthogonalEdgeStyle;html=1;verticalAlign=bottom;endArrow=open;endSize=8;strokeColor=#ff0000;rounded=0;entryX=0.5;entryY=1;entryDx=0;entryDy=0;exitX=0.5;exitY=0;exitDx=0;exitDy=0;exitPerimeter=0;" parent="1" source="DTc2Wn41yiB-sZ89Ve1j-29" target="DTc2Wn41yiB-sZ89Ve1j-34" edge="1">
          <mxGeometry relative="1" as="geometry">
            <mxPoint x="620" y="350.54999999999995" as="targetPoint" />
            <mxPoint x="590" y="380" as="sourcePoint" />
            <Array as="points" />
          </mxGeometry>
        </mxCell>
        <mxCell id="DTc2Wn41yiB-sZ89Ve1j-36" value="Вихід з платформи" style="text;whiteSpace=wrap;html=1;" parent="1" vertex="1">
          <mxGeometry x="600" y="330" width="70" height="40" as="geometry" />
        </mxCell>
        <mxCell id="-dHO1ZHkwUx7SZu_y6qH-1" value="Визначення рівня складності" style="rhombus;whiteSpace=wrap;html=1;fontColor=#000000;fillColor=#ffffc0;strokeColor=#ff0000;" parent="1" vertex="1">
          <mxGeometry x="60" y="370" width="160" height="70" as="geometry" />
        </mxCell>
        <mxCell id="-dHO1ZHkwUx7SZu_y6qH-2" value="yes" style="edgeStyle=orthogonalEdgeStyle;html=1;align=left;verticalAlign=bottom;endArrow=open;endSize=8;strokeColor=#ff0000;rounded=0;" parent="1" source="-dHO1ZHkwUx7SZu_y6qH-1" edge="1">
          <mxGeometry x="-1" relative="1" as="geometry">
            <mxPoint x="320" y="405" as="targetPoint" />
            <mxPoint as="offset" />
          </mxGeometry>
        </mxCell>
        <mxCell id="-dHO1ZHkwUx7SZu_y6qH-3" value="no" style="edgeStyle=orthogonalEdgeStyle;html=1;align=left;verticalAlign=top;endArrow=open;endSize=8;strokeColor=#ff0000;rounded=0;" parent="1" source="-dHO1ZHkwUx7SZu_y6qH-1" edge="1">
          <mxGeometry x="-1" relative="1" as="geometry">
            <mxPoint x="140" y="500" as="targetPoint" />
          </mxGeometry>
        </mxCell>
        <mxCell id="-dHO1ZHkwUx7SZu_y6qH-4" value="" style="edgeStyle=orthogonalEdgeStyle;html=1;verticalAlign=bottom;endArrow=open;endSize=8;strokeColor=#ff0000;rounded=0;" parent="1" edge="1">
          <mxGeometry relative="1" as="geometry">
            <mxPoint x="135" y="370" as="targetPoint" />
            <mxPoint x="134.5" y="300" as="sourcePoint" />
            <Array as="points">
              <mxPoint x="134.5" y="330" />
              <mxPoint x="135.5" y="330" />
            </Array>
          </mxGeometry>
        </mxCell>
        <mxCell id="_VO8CBCA-Q30mTvBRom--1" value="" style="edgeStyle=orthogonalEdgeStyle;html=1;verticalAlign=bottom;endArrow=open;endSize=8;strokeColor=#ff0000;rounded=0;entryX=0.417;entryY=1;entryDx=0;entryDy=0;entryPerimeter=0;exitX=0.5;exitY=0;exitDx=0;exitDy=0;" edge="1" parent="1" source="DTc2Wn41yiB-sZ89Ve1j-20" target="DTc2Wn41yiB-sZ89Ve1j-26">
          <mxGeometry relative="1" as="geometry">
            <mxPoint x="400" y="480" as="targetPoint" />
            <mxPoint x="320" y="480" as="sourcePoint" />
          </mxGeometry>
        </mxCell>
        <mxCell id="_VO8CBCA-Q30mTvBRom--2" value="" style="edgeStyle=orthogonalEdgeStyle;html=1;verticalAlign=bottom;endArrow=open;endSize=8;strokeColor=#ff0000;rounded=0;entryX=0.823;entryY=1.07;entryDx=0;entryDy=0;entryPerimeter=0;" edge="1" parent="1" target="DTc2Wn41yiB-sZ89Ve1j-26">
          <mxGeometry relative="1" as="geometry">
            <mxPoint x="280" y="629.5" as="targetPoint" />
            <mxPoint x="200" y="629.5" as="sourcePoint" />
            <Array as="points">
              <mxPoint x="419" y="630" />
            </Array>
          </mxGeometry>
        </mxCell>
      </root>
    </mxGraphModel>
  </diagram>
</mxfile>
